<svg xmlns="http://www.w3.org/2000/svg" xmlns:xlink="http://www.w3.org/1999/xlink" width="799" height="578">
  <rect width="100%" height="100%" fill="#ffffff"/>
  <defs>
    <g id="a0"><radialGradient id="g0" cx=".5" cy=".5" fx=".33" fy=".33" r=".66"><stop offset="0%" stop-color="#fbfbfb"/><stop offset="100%" stop-color="#afafaf"/></radialGradient><circle cx="0" cy="0" r="12.6" fill="url(#g0)" stroke="#000000" stroke-width="1.7"/></g>
    <g id="a1"><radialGradient id="g1" cx=".5" cy=".5" fx=".33" fy=".33" r=".66"><stop offset="0%" stop-color="#e4e4e4"/><stop offset="100%" stop-color="#979797"/></radialGradient><circle cx="0" cy="0" r="23.9" fill="url(#g1)" stroke="#000000" stroke-width="1.7"/></g>
    <g id="a2"><radialGradient id="g2" cx=".5" cy=".5" fx=".33" fy=".33" r=".66"><stop offset="0%" stop-color="#e4e4e4"/><stop offset="100%" stop-color="#989898"/></radialGradient><circle cx="0" cy="0" r="23.9" fill="url(#g2)" stroke="#050505" stroke-width="1.7"/></g>
    <g id="a3"><radialGradient id="g3" cx=".5" cy=".5" fx=".33" fy=".33" r=".66"><stop offset="0%" stop-color="#ff5555"/><stop offset="100%" stop-color="#b20909"/></radialGradient><circle cx="0" cy="0" r="21.4" fill="url(#g3)" stroke="#000000" stroke-width="1.7"/></g>
    <g id="a4"><radialGradient id="g4" cx=".5" cy=".5" fx=".33" fy=".33" r=".66"><stop offset="0%" stop-color="#ff7a7a"/><stop offset="100%" stop-color="#c23f3f"/></radialGradient><circle cx="0" cy="0" r="21.4" fill="url(#g4)" stroke="#505050" stroke-width="1.7"/></g>
    <g id="a5"><radialGradient id="g5" cx=".5" cy=".5" fx=".33" fy=".33" r=".66"><stop offset="0%" stop-color="#fcfcfc"/><stop offset="100%" stop-color="#c3c3c3"/></radialGradient><circle cx="0" cy="0" r="12.6" fill="url(#g5)" stroke="#5e5e5e" stroke-width="1.7"/></g>
    <g id="a6"><radialGradient id="g6" cx=".5" cy=".5" fx=".33" fy=".33" r=".66"><stop offset="0%" stop-color="#e6e6e6"/><stop offset="100%" stop-color="#9e9e9e"/></radialGradient><circle cx="0" cy="0" r="23.9" fill="url(#g6)" stroke="#1b1b1b" stroke-width="1.7"/></g>
    <g id="a7"><radialGradient id="g7" cx=".5" cy=".5" fx=".33" fy=".33" r=".66"><stop offset="0%" stop-color="#e4e4e4"/><stop offset="100%" stop-color="#989898"/></radialGradient><circle cx="0" cy="0" r="23.9" fill="url(#g7)" stroke="#050505" stroke-width="1.7"/></g>
    <g id="a8"><radialGradient id="g8" cx=".5" cy=".5" fx=".33" fy=".33" r=".66"><stop offset="0%" stop-color="#fbfbfb"/><stop offset="100%" stop-color="#b5b5b5"/></radialGradient><circle cx="0" cy="0" r="12.6" fill="url(#g8)" stroke="#1f1f1f" stroke-width="1.7"/></g>
    <g id="a9"><radialGradient id="g9" cx=".5" cy=".5" fx=".33" fy=".33" r=".66"><stop offset="0%" stop-color="#a5a5d2"/><stop offset="100%" stop-color="#585885"/></radialGradient><circle cx="0" cy="0" r="22.5" fill="url(#g9)" stroke="#000000" stroke-width="1.7"/></g>
    <g id="a10"><radialGradient id="g10" cx=".5" cy=".5" fx=".33" fy=".33" r=".66"><stop offset="0%" stop-color="#fbfbfb"/><stop offset="100%" stop-color="#b4b4b4"/></radialGradient><circle cx="0" cy="0" r="12.6" fill="url(#g10)" stroke="#1a1a1a" stroke-width="1.7"/></g>
    <g id="a11"><radialGradient id="g11" cx=".5" cy=".5" fx=".33" fy=".33" r=".66"><stop offset="0%" stop-color="#fbfbfb"/><stop offset="100%" stop-color="#afafaf"/></radialGradient><circle cx="0" cy="0" r="12.6" fill="url(#g11)" stroke="#000000" stroke-width="1.7"/></g>
    <g id="a12"><radialGradient id="g12" cx=".5" cy=".5" fx=".33" fy=".33" r=".66"><stop offset="0%" stop-color="#ff5555"/><stop offset="100%" stop-color="#b20909"/></radialGradient><circle cx="0" cy="0" r="21.4" fill="url(#g12)" stroke="#000000" stroke-width="1.7"/></g>
    <g id="a13"><radialGradient id="g13" cx=".5" cy=".5" fx=".33" fy=".33" r=".66"><stop offset="0%" stop-color="#adadd6"/><stop offset="100%" stop-color="#686890"/></radialGradient><circle cx="0" cy="0" r="22.5" fill="url(#g13)" stroke="#232323" stroke-width="1.7"/></g>
    <g id="a14"><radialGradient id="g14" cx=".5" cy=".5" fx=".33" fy=".33" r=".66"><stop offset="0%" stop-color="#fcfcfc"/><stop offset="100%" stop-color="#c8c8c8"/></radialGradient><circle cx="0" cy="0" r="12.6" fill="url(#g14)" stroke="#727272" stroke-width="1.7"/></g>
    <g id="a15"><radialGradient id="g15" cx=".5" cy=".5" fx=".33" fy=".33" r=".66"><stop offset="0%" stop-color="#fcfcfc"/><stop offset="100%" stop-color="#c6c6c6"/></radialGradient><circle cx="0" cy="0" r="12.6" fill="url(#g15)" stroke="#6a6a6a" stroke-width="1.7"/></g>
    <g id="a16"><radialGradient id="g16" cx=".5" cy=".5" fx=".33" fy=".33" r=".66"><stop offset="0%" stop-color="#fbfbfb"/><stop offset="100%" stop-color="#b3b3b3"/></radialGradient><circle cx="0" cy="0" r="12.6" fill="url(#g16)" stroke="#121212" stroke-width="1.7"/></g>
  </defs>
  <defs>
    <radialGradient id="vg1" cx=".5" cy=".5" fx=".33" fy=".33" r=".66"><stop offset="0%" stop-color="#fafafa"/><stop offset="100%" stop-color="#262626"/></radialGradient>
    <radialGradient id="vg8" cx=".5" cy=".5" fx=".33" fy=".33" r=".66"><stop offset="0%" stop-color="#ff0d0d"/><stop offset="100%" stop-color="#270202"/></radialGradient>
    <radialGradient id="vg7" cx=".5" cy=".5" fx=".33" fy=".33" r=".66"><stop offset="0%" stop-color="#7f7fbf"/><stop offset="100%" stop-color="#13131d"/></radialGradient>
    <radialGradient id="vg6" cx=".5" cy=".5" fx=".33" fy=".33" r=".66"><stop offset="0%" stop-color="#d9d9d9"/><stop offset="100%" stop-color="#212121"/></radialGradient>
  </defs>
  <use x="391.8" y="264.3" xlink:href="#a14"/>
  <line x1="391.3" y1="260.2" x2="389.2" y2="245.3" stroke="#4f4f4f" stroke-width="11.1" stroke-linecap="round"/>
  <use x="245.3" y="321.1" xlink:href="#a15"/>
  <line x1="242.6" y1="315.7" x2="234.6" y2="299.2" stroke="#505050" stroke-width="11.1" stroke-linecap="round"/>
  <use x="632.1" y="275.9" xlink:href="#a5"/>
  <line x1="621.3" y1="278.7" x2="589.8" y2="286.8" stroke="#5a5a5a" stroke-width="11.1" stroke-linecap="round"/>
  <use x="571.4" y="291.6" xlink:href="#a4"/>
  <line x1="566.2" y1="286.6" x2="552.8" y2="273.7" stroke="#414141" stroke-width="11.1" stroke-linecap="round"/>
  <use x="229.8" y="289.6" xlink:href="#a13"/>
  <line x1="210.6" y1="289.8" x2="177.7" y2="290.1" stroke="#3e3e3e" stroke-width="11.1" stroke-linecap="round"/>
  <line x1="243.7" y1="278.3" x2="278.8" y2="249.9" stroke="#3a3a3a" stroke-width="11.1" stroke-linecap="round"/>
  <use x="411.0" y="167.4" xlink:href="#a8"/>
  <line x1="407.5" y1="178.1" x2="394.7" y2="217.2" stroke="#404040" stroke-width="11.1" stroke-linecap="round"/>
  <use x="388.1" y="237.5" xlink:href="#a6"/>
  <line x1="368.0" y1="237.6" x2="313.6" y2="237.9" stroke="#393939" stroke-width="11.1" stroke-linecap="round"/>
  <line x1="401.3" y1="248.3" x2="437.7" y2="278.2" stroke="#363636" stroke-width="11.1" stroke-linecap="round"/>
  <use x="436.2" y="410.6" xlink:href="#a10"/>
  <line x1="436.6" y1="406.6" x2="437.8" y2="394.1" stroke="#363636" stroke-width="11.1" stroke-linecap="round"/>
  <use x="166.9" y="290.2" xlink:href="#a16"/>
  <use x="293.5" y="237.9" xlink:href="#a7"/>
  <line x1="287.0" y1="227.2" x2="274.5" y2="206.6" stroke="#333333" stroke-width="11.1" stroke-linecap="round"/>
  <use x="547.0" y="268.2" xlink:href="#a2"/>
  <line x1="526.7" y1="272.6" x2="471.1" y2="284.6" stroke="#333333" stroke-width="11.1" stroke-linecap="round"/>
  <line x1="562.1" y1="258.5" x2="590.4" y2="240.4" stroke="#333333" stroke-width="11.1" stroke-linecap="round"/>
  <use x="450.8" y="289.0" xlink:href="#a1"/>
  <line x1="448.1" y1="310.3" x2="441.0" y2="366.9" stroke="#333333" stroke-width="11.1" stroke-linecap="round"/>
  <line x1="447.7" y1="282.3" x2="441.7" y2="269.1" stroke="#333333" stroke-width="11.1" stroke-linecap="round"/>
  <use x="438.4" y="386.9" xlink:href="#a9"/>
  <line x1="421.3" y1="391.6" x2="391.6" y2="399.5" stroke="#333333" stroke-width="11.1" stroke-linecap="round"/>
  <use x="603.9" y="231.7" xlink:href="#a3"/>
  <use x="382.0" y="402.1" xlink:href="#a11"/>
  <use x="268.6" y="196.9" xlink:href="#a12"/>
  <use x="440.1" y="265.6" xlink:href="#a0"/>
  <g opacity="0.25">
    <circle cx="391.8" cy="264.3" r="67.0" fill="url(#vg1)"/>
    <circle cx="245.3" cy="321.1" r="67.0" fill="url(#vg1)"/>
    <circle cx="632.1" cy="275.9" r="67.0" fill="url(#vg1)"/>
    <circle cx="571.4" cy="291.6" r="114.3" fill="url(#vg8)"/>
    <circle cx="229.8" cy="289.6" r="119.9" fill="url(#vg7)"/>
    <circle cx="411.0" cy="167.4" r="67.0" fill="url(#vg1)"/>
    <circle cx="388.1" cy="237.5" r="127.4" fill="url(#vg6)"/>
    <circle cx="436.2" cy="410.6" r="67.0" fill="url(#vg1)"/>
    <circle cx="166.9" cy="290.2" r="67.0" fill="url(#vg1)"/>
    <circle cx="293.5" cy="237.9" r="127.4" fill="url(#vg6)"/>
    <circle cx="547.0" cy="268.2" r="127.4" fill="url(#vg6)"/>
    <circle cx="450.8" cy="289.0" r="127.4" fill="url(#vg6)"/>
    <circle cx="438.4" cy="386.9" r="119.9" fill="url(#vg7)"/>
    <circle cx="603.9" cy="231.7" r="114.3" fill="url(#vg8)"/>
    <circle cx="382.0" cy="402.1" r="67.0" fill="url(#vg1)"/>
    <circle cx="268.6" cy="196.9" r="114.3" fill="url(#vg8)"/>
    <circle cx="440.1" cy="265.6" r="67.0" fill="url(#vg1)"/>
  </g>
</svg>