<svg xmlns="http://www.w3.org/2000/svg" xmlns:xlink="http://www.w3.org/1999/xlink" width="800" height="421">
  <rect width="100%" height="100%" fill="#ffffff"/>
  <defs>
    <g id="a0"><radialGradient id="g0" cx=".5" cy=".5" fx=".33" fy=".33" r=".66"><stop offset="0%" stop-color="#c3c3c3"/><stop offset="100%" stop-color="#888888"/></radialGradient><circle cx="0" cy="0" r="36.0" fill="url(#g0)" stroke="#000000" stroke-width="6.7"/></g>
    <g id="a1"><radialGradient id="g1" cx=".5" cy=".5" fx=".33" fy=".33" r=".66"><stop offset="0%" stop-color="#ff5555"/><stop offset="100%" stop-color="#cc0a0a"/></radialGradient><circle cx="0" cy="0" r="32.3" fill="url(#g1)" stroke="#000000" stroke-width="6.7"/></g>
    <g id="a2"><radialGradient id="g2" cx=".5" cy=".5" fx=".33" fy=".33" r=".66"><stop offset="0%" stop-color="#ff7373"/><stop offset="100%" stop-color="#d53535"/></radialGradient><circle cx="0" cy="0" r="32.3" fill="url(#g2)" stroke="#404040" stroke-width="6.7"/></g>
    <g id="a3"><radialGradient id="g3" cx=".5" cy=".5" fx=".33" fy=".33" r=".66"><stop offset="0%" stop-color="#c3c3c3"/><stop offset="100%" stop-color="#898989"/></radialGradient><circle cx="0" cy="0" r="36.0" fill="url(#g3)" stroke="#050505" stroke-width="6.7"/></g>
    <g id="a7"><radialGradient id="g7" cx=".5" cy=".5" fx=".33" fy=".33" r=".66"><stop offset="0%" stop-color="#ffffff"/><stop offset="100%" stop-color="#d1d1d1"/></radialGradient><circle cx="0" cy="0" r="18.9" fill="url(#g7)" stroke="#252525" stroke-width="6.7"/></g>
    <g id="a8"><radialGradient id="g8" cx=".5" cy=".5" fx=".33" fy=".33" r=".66"><stop offset="0%" stop-color="#6e84fa"/><stop offset="100%" stop-color="#2740c6"/></radialGradient><circle cx="0" cy="0" r="33.9" fill="url(#g8)" stroke="#010101" stroke-width="6.7"/></g>
    <g id="a9"><radialGradient id="g9" cx=".5" cy=".5" fx=".33" fy=".33" r=".66"><stop offset="0%" stop-color="#ffffff"/><stop offset="100%" stop-color="#cccccc"/></radialGradient><circle cx="0" cy="0" r="18.9" fill="url(#g9)" stroke="#000000" stroke-width="6.7"/></g>
    <g id="a10"><radialGradient id="g10" cx=".5" cy=".5" fx=".33" fy=".33" r=".66"><stop offset="0%" stop-color="#ffffff"/><stop offset="100%" stop-color="#cdcdcd"/></radialGradient><circle cx="0" cy="0" r="18.9" fill="url(#g10)" stroke="#0a0a0a" stroke-width="6.7"/></g>
    <g id="a11"><radialGradient id="g11" cx=".5" cy=".5" fx=".33" fy=".33" r=".66"><stop offset="0%" stop-color="#c4c4c4"/><stop offset="100%" stop-color="#8b8b8b"/></radialGradient><circle cx="0" cy="0" r="36.0" fill="url(#g11)" stroke="#090909" stroke-width="6.7"/></g>
  </defs>
  <use x="335.1" y="268.2" xlink:href="#a2"/>
  <line x1="363.1" y1="271.4" x2="416.2" y2="277.5" stroke="#1c1c1c" stroke-width="16.8" stroke-linecap="round"/>
  <line x1="321.1" y1="255.5" x2="286.4" y2="224.2" stroke="#090909" stroke-width="16.8" stroke-linecap="round"/>
  <use x="432.6" y="279.4" xlink:href="#a7"/>
  <line x1="448.5" y1="279.5" x2="560.6" y2="280.5" stroke="#070707" stroke-width="16.8" stroke-linecap="round" stroke-dasharray="1.3,33.5"/>
  <use x="662.9" y="345.1" xlink:href="#a10"/>
  <line x1="650.4" y1="334.3" x2="611.2" y2="300.2" stroke="#020202" stroke-width="16.8" stroke-linecap="round"/>
  <use x="631.8" y="142.2" xlink:href="#a11"/>
  <line x1="622.3" y1="172.7" x2="597.8" y2="252.0" stroke="#020202" stroke-width="16.8" stroke-linecap="round"/>
  <use x="124.7" y="192.5" xlink:href="#a3"/>
  <line x1="156.2" y1="196.3" x2="239.2" y2="206.3" stroke="#010101" stroke-width="16.8" stroke-linecap="round"/>
  <use x="588.9" y="280.7" xlink:href="#a8"/>
  <line x1="582.5" y1="284.4" x2="571.0" y2="290.8" stroke="#000000" stroke-width="16.8" stroke-linecap="round"/>
  <use x="270.8" y="210.1" xlink:href="#a0"/>
  <line x1="280.0" y1="192.5" x2="307.0" y2="175.6" stroke="#000000" stroke-width="11.7" stroke-linecap="round"/>
  <line x1="290.6" y1="209.6" x2="317.6" y2="192.7" stroke="#000000" stroke-width="11.7" stroke-linecap="round"/>
  <use x="567.4" y="292.8" xlink:href="#a9"/>
  <use x="325.3" y="176.0" xlink:href="#a1"/>
</svg>